<svg id="SvgjsSvg1001" width="288" height="288" xmlns="http://www.w3.org/2000/svg" version="1.1" xmlns:xlink="http://www.w3.org/1999/xlink" xmlns:svgjs="http://svgjs.com/svgjs"><defs id="SvgjsDefs1002"></defs><g id="SvgjsG1008"><svg xmlns="http://www.w3.org/2000/svg" viewBox="0 -960 960 960" width="288" height="288"><path d="M480-438 270-228q-9 9-21 9t-21-9q-9-9-9-21t9-21l210-210-210-210q-9-9-9-21t9-21q9-9 21-9t21 9l210 210 210-210q9-9 21-9t21 9q9 9 9 21t-9 21L522-480l210 210q9 9 9 21t-9 21q-9 9-21 9t-21-9L480-438Z" fill="#d4d4d4" class="color000 svgShape"></path></svg></g></svg>